<mxfile host="app.diagrams.net" modified="2022-08-18T03:22:36.950Z" agent="5.0 (Windows NT 10.0; Win64; x64) AppleWebKit/537.36 (KHTML, like Gecko) Chrome/104.0.0.0 Safari/537.36" etag="PhY10F44m0kgEWiuxasM" version="20.0.4" type="github">
  <diagram id="C5RBs43oDa-KdzZeNtuy" name="Page-1">
    <mxGraphModel dx="1117" dy="724" grid="1" gridSize="10" guides="1" tooltips="1" connect="1" arrows="1" fold="1" page="1" pageScale="1" pageWidth="827" pageHeight="1169" math="0" shadow="0">
      <root>
        <mxCell id="WIyWlLk6GJQsqaUBKTNV-0" />
        <mxCell id="WIyWlLk6GJQsqaUBKTNV-1" parent="WIyWlLk6GJQsqaUBKTNV-0" />
        <mxCell id="Pt9aI-VBL-_xMNvj70xd-24" value="" style="edgeStyle=orthogonalEdgeStyle;rounded=0;orthogonalLoop=1;jettySize=auto;html=1;" edge="1" parent="WIyWlLk6GJQsqaUBKTNV-1" source="Pt9aI-VBL-_xMNvj70xd-1" target="Pt9aI-VBL-_xMNvj70xd-2">
          <mxGeometry relative="1" as="geometry" />
        </mxCell>
        <mxCell id="Pt9aI-VBL-_xMNvj70xd-1" value="Start" style="strokeWidth=2;html=1;shape=mxgraph.flowchart.start_1;whiteSpace=wrap;" vertex="1" parent="WIyWlLk6GJQsqaUBKTNV-1">
          <mxGeometry x="170" y="30" width="100" height="60" as="geometry" />
        </mxCell>
        <mxCell id="Pt9aI-VBL-_xMNvj70xd-4" value="" style="edgeStyle=orthogonalEdgeStyle;rounded=0;orthogonalLoop=1;jettySize=auto;html=1;" edge="1" parent="WIyWlLk6GJQsqaUBKTNV-1" source="Pt9aI-VBL-_xMNvj70xd-2" target="Pt9aI-VBL-_xMNvj70xd-3">
          <mxGeometry relative="1" as="geometry" />
        </mxCell>
        <mxCell id="Pt9aI-VBL-_xMNvj70xd-2" value="กำหนดตัวแปร char name [50]" style="rounded=1;whiteSpace=wrap;html=1;absoluteArcSize=1;arcSize=14;strokeWidth=2;" vertex="1" parent="WIyWlLk6GJQsqaUBKTNV-1">
          <mxGeometry x="140" y="120" width="160" height="60" as="geometry" />
        </mxCell>
        <mxCell id="Pt9aI-VBL-_xMNvj70xd-6" value="" style="edgeStyle=orthogonalEdgeStyle;rounded=0;orthogonalLoop=1;jettySize=auto;html=1;" edge="1" parent="WIyWlLk6GJQsqaUBKTNV-1" source="Pt9aI-VBL-_xMNvj70xd-3" target="Pt9aI-VBL-_xMNvj70xd-5">
          <mxGeometry relative="1" as="geometry" />
        </mxCell>
        <mxCell id="Pt9aI-VBL-_xMNvj70xd-3" value="แสดง Enter Name&lt;br&gt;เก็บในตัวแปร name" style="shape=parallelogram;html=1;strokeWidth=2;perimeter=parallelogramPerimeter;whiteSpace=wrap;rounded=1;arcSize=12;size=0.23;" vertex="1" parent="WIyWlLk6GJQsqaUBKTNV-1">
          <mxGeometry x="140" y="220" width="160" height="60" as="geometry" />
        </mxCell>
        <mxCell id="Pt9aI-VBL-_xMNvj70xd-8" value="" style="edgeStyle=orthogonalEdgeStyle;rounded=0;orthogonalLoop=1;jettySize=auto;html=1;" edge="1" parent="WIyWlLk6GJQsqaUBKTNV-1" source="Pt9aI-VBL-_xMNvj70xd-5" target="Pt9aI-VBL-_xMNvj70xd-7">
          <mxGeometry relative="1" as="geometry" />
        </mxCell>
        <mxCell id="Pt9aI-VBL-_xMNvj70xd-5" value="กำหนดตัวแปร มารับค่า strlen ในการเช็คระยะของคำในตัวแปรที่รับมา" style="whiteSpace=wrap;html=1;strokeWidth=2;rounded=1;arcSize=12;" vertex="1" parent="WIyWlLk6GJQsqaUBKTNV-1">
          <mxGeometry x="140" y="320" width="160" height="60" as="geometry" />
        </mxCell>
        <mxCell id="Pt9aI-VBL-_xMNvj70xd-10" value="" style="edgeStyle=orthogonalEdgeStyle;rounded=0;orthogonalLoop=1;jettySize=auto;html=1;" edge="1" parent="WIyWlLk6GJQsqaUBKTNV-1" source="Pt9aI-VBL-_xMNvj70xd-7">
          <mxGeometry relative="1" as="geometry">
            <mxPoint x="220" y="500" as="targetPoint" />
          </mxGeometry>
        </mxCell>
        <mxCell id="Pt9aI-VBL-_xMNvj70xd-7" value="int n = i" style="whiteSpace=wrap;html=1;strokeWidth=2;rounded=1;arcSize=12;" vertex="1" parent="WIyWlLk6GJQsqaUBKTNV-1">
          <mxGeometry x="160" y="410" width="120" height="60" as="geometry" />
        </mxCell>
        <mxCell id="Pt9aI-VBL-_xMNvj70xd-15" value="" style="edgeStyle=orthogonalEdgeStyle;rounded=0;orthogonalLoop=1;jettySize=auto;html=1;" edge="1" parent="WIyWlLk6GJQsqaUBKTNV-1" source="Pt9aI-VBL-_xMNvj70xd-11">
          <mxGeometry relative="1" as="geometry">
            <mxPoint x="220" y="580" as="targetPoint" />
          </mxGeometry>
        </mxCell>
        <mxCell id="Pt9aI-VBL-_xMNvj70xd-11" value="" style="verticalLabelPosition=bottom;verticalAlign=top;html=1;shape=mxgraph.flowchart.on-page_reference;" vertex="1" parent="WIyWlLk6GJQsqaUBKTNV-1">
          <mxGeometry x="210" y="500" width="20" height="20" as="geometry" />
        </mxCell>
        <mxCell id="Pt9aI-VBL-_xMNvj70xd-18" value="" style="edgeStyle=orthogonalEdgeStyle;rounded=0;orthogonalLoop=1;jettySize=auto;html=1;" edge="1" parent="WIyWlLk6GJQsqaUBKTNV-1" source="Pt9aI-VBL-_xMNvj70xd-16" target="Pt9aI-VBL-_xMNvj70xd-17">
          <mxGeometry relative="1" as="geometry" />
        </mxCell>
        <mxCell id="Pt9aI-VBL-_xMNvj70xd-25" style="edgeStyle=orthogonalEdgeStyle;rounded=0;orthogonalLoop=1;jettySize=auto;html=1;exitX=1;exitY=0.5;exitDx=0;exitDy=0;exitPerimeter=0;" edge="1" parent="WIyWlLk6GJQsqaUBKTNV-1" source="Pt9aI-VBL-_xMNvj70xd-16" target="Pt9aI-VBL-_xMNvj70xd-26">
          <mxGeometry relative="1" as="geometry">
            <mxPoint x="200" y="1060" as="targetPoint" />
            <Array as="points">
              <mxPoint x="350" y="630" />
              <mxPoint x="350" y="980" />
              <mxPoint x="200" y="980" />
            </Array>
          </mxGeometry>
        </mxCell>
        <mxCell id="Pt9aI-VBL-_xMNvj70xd-16" value="i &amp;gt;= 0" style="strokeWidth=2;html=1;shape=mxgraph.flowchart.decision;whiteSpace=wrap;" vertex="1" parent="WIyWlLk6GJQsqaUBKTNV-1">
          <mxGeometry x="170" y="580" width="100" height="100" as="geometry" />
        </mxCell>
        <mxCell id="Pt9aI-VBL-_xMNvj70xd-20" value="" style="edgeStyle=orthogonalEdgeStyle;rounded=0;orthogonalLoop=1;jettySize=auto;html=1;" edge="1" parent="WIyWlLk6GJQsqaUBKTNV-1" source="Pt9aI-VBL-_xMNvj70xd-17" target="Pt9aI-VBL-_xMNvj70xd-19">
          <mxGeometry relative="1" as="geometry" />
        </mxCell>
        <mxCell id="Pt9aI-VBL-_xMNvj70xd-17" value="แสดงค่า char ที่ name" style="whiteSpace=wrap;html=1;strokeWidth=2;" vertex="1" parent="WIyWlLk6GJQsqaUBKTNV-1">
          <mxGeometry x="160" y="730" width="120" height="60" as="geometry" />
        </mxCell>
        <mxCell id="Pt9aI-VBL-_xMNvj70xd-19" value="i - 1" style="whiteSpace=wrap;html=1;strokeWidth=2;" vertex="1" parent="WIyWlLk6GJQsqaUBKTNV-1">
          <mxGeometry x="160" y="870" width="120" height="60" as="geometry" />
        </mxCell>
        <mxCell id="Pt9aI-VBL-_xMNvj70xd-21" value="" style="endArrow=none;html=1;rounded=0;" edge="1" parent="WIyWlLk6GJQsqaUBKTNV-1">
          <mxGeometry width="50" height="50" relative="1" as="geometry">
            <mxPoint x="90" y="900" as="sourcePoint" />
            <mxPoint x="160" y="900" as="targetPoint" />
          </mxGeometry>
        </mxCell>
        <mxCell id="Pt9aI-VBL-_xMNvj70xd-22" value="" style="endArrow=none;html=1;rounded=0;" edge="1" parent="WIyWlLk6GJQsqaUBKTNV-1">
          <mxGeometry width="50" height="50" relative="1" as="geometry">
            <mxPoint x="90" y="900" as="sourcePoint" />
            <mxPoint x="90" y="510" as="targetPoint" />
          </mxGeometry>
        </mxCell>
        <mxCell id="Pt9aI-VBL-_xMNvj70xd-23" value="" style="endArrow=classic;html=1;rounded=0;entryX=0;entryY=0.5;entryDx=0;entryDy=0;entryPerimeter=0;" edge="1" parent="WIyWlLk6GJQsqaUBKTNV-1" target="Pt9aI-VBL-_xMNvj70xd-11">
          <mxGeometry width="50" height="50" relative="1" as="geometry">
            <mxPoint x="90" y="510" as="sourcePoint" />
            <mxPoint x="310" y="530" as="targetPoint" />
          </mxGeometry>
        </mxCell>
        <mxCell id="Pt9aI-VBL-_xMNvj70xd-26" value="END" style="strokeWidth=2;html=1;shape=mxgraph.flowchart.start_1;whiteSpace=wrap;" vertex="1" parent="WIyWlLk6GJQsqaUBKTNV-1">
          <mxGeometry x="150" y="1030" width="100" height="60" as="geometry" />
        </mxCell>
        <mxCell id="Pt9aI-VBL-_xMNvj70xd-27" value="no" style="text;html=1;strokeColor=none;fillColor=none;align=center;verticalAlign=middle;whiteSpace=wrap;rounded=0;" vertex="1" parent="WIyWlLk6GJQsqaUBKTNV-1">
          <mxGeometry x="260" y="584.5" width="60" height="30" as="geometry" />
        </mxCell>
        <mxCell id="Pt9aI-VBL-_xMNvj70xd-28" value="yes" style="text;html=1;strokeColor=none;fillColor=none;align=center;verticalAlign=middle;whiteSpace=wrap;rounded=0;" vertex="1" parent="WIyWlLk6GJQsqaUBKTNV-1">
          <mxGeometry x="160" y="690" width="60" height="30" as="geometry" />
        </mxCell>
      </root>
    </mxGraphModel>
  </diagram>
</mxfile>
